<svg width="37" height="40" viewBox="0 0 37 40" fill="none" xmlns="http://www.w3.org/2000/svg">
<path d="M0.160274 28.145C-0.146417 27.6705 0.000692457 27.0362 0.484978 26.7451L12.1302 19.7455L0.484978 12.746C0.00069195 12.4549 -0.146417 11.8206 0.160275 11.3461L3.17575 6.6801C3.48511 6.20141 4.13138 6.0777 4.59566 6.40829L14.8929 13.7405L14.4367 1.03588C14.4164 0.469891 14.8697 0 15.4361 0H20.763C21.3293 0 21.7827 0.469893 21.7623 1.03588L21.3062 13.7405L31.6034 6.40829C32.0677 6.07769 32.714 6.20141 33.0233 6.6801L36.0388 11.3461C36.3455 11.8206 36.1984 12.4549 35.7141 12.746L24.0689 19.7455L35.7141 26.7451C36.1984 27.0362 36.3455 27.6705 36.0388 28.145L33.0233 32.811C32.714 33.2897 32.0677 33.4134 31.6034 33.0828L21.3062 25.7506L21.7637 38.9654C21.7833 39.5309 21.3302 40 20.7643 40H15.4348C14.8689 40 14.4158 39.5309 14.4354 38.9654L14.8929 25.7506L4.59566 33.0828C4.13138 33.4134 3.48511 33.2897 3.17575 32.811L0.160274 28.145Z" fill="#BB3736"/>
</svg>
