<svg xmlns="http://www.w3.org/2000/svg" width="184" height="180" fill="none"><g clip-path="url(#a)"><path fill="#24292F" d="M0 0h183.05v180H0z"/><circle cx="91.735" cy="96.765" r="87.499" fill="#fff"/><path fill="#24292F" fill-rule="evenodd" d="M91.6 0C40.949 0 0 41.25 0 92.282c0 40.792 26.237 75.322 62.634 87.543 4.55.919 6.218-1.986 6.218-4.429 0-2.139-.15-9.472-.15-17.113-25.482 5.501-30.788-11-30.788-11-4.095-10.695-10.162-13.444-10.162-13.444-8.34-5.653.607-5.653.607-5.653 9.252.611 14.106 9.472 14.106 9.472 8.188 14.055 21.382 10.084 26.69 7.639.758-5.959 3.186-10.084 5.764-12.375-20.323-2.139-41.705-10.084-41.705-45.53 0-10.084 3.637-18.334 9.4-24.75-.908-2.292-4.094-11.766.912-24.446 0 0 7.734-2.445 25.174 9.472a88 88 0 0 1 22.9-3.056c7.735 0 15.62 1.07 22.9 3.056 17.441-11.917 25.176-9.472 25.176-9.472 5.006 12.68 1.818 22.154.909 24.446 5.916 6.416 9.403 14.666 9.403 24.75 0 35.446-21.382 43.237-41.857 45.53 3.337 2.902 6.217 8.402 6.217 17.111 0 12.375-.15 22.307-.15 25.361 0 2.445 1.669 5.35 6.218 4.433 36.397-12.225 62.634-46.753 62.634-87.545C183.2 41.25 142.102 0 91.6 0" clip-rule="evenodd"/></g><defs><clipPath id="a"><path fill="#fff" d="M0 0h183.05v180H0z"/></clipPath></defs></svg>