<svg width="180" height="180" viewBox="0 0 180 180" fill="none" xmlns="http://www.w3.org/2000/svg">
<rect width="180" height="180" fill="#E6E6E6"/>
<path d="M33.3105 27.0287L108.98 21.3386C118.165 20.4632 120.571 21.1198 126.476 25.2779L150.751 42.3482C154.688 45.1932 156 46.0686 156 49.3514V142.8C156 148.709 153.813 152.211 146.377 152.649L58.4608 157.901C52.7746 158.12 50.1503 157.463 47.3072 153.743L29.5927 130.764C26.3122 126.387 25 123.323 25 119.602V36.4392C25 31.6245 27.187 27.4664 33.3105 27.0287Z" fill="#E6E6E6"/>
<path fill-rule="evenodd" clip-rule="evenodd" d="M108.98 21.3385L33.3105 27.0286C27.187 27.4663 25 31.6244 25 36.4391V119.602C25 123.323 26.3122 126.605 29.5927 130.763L47.3072 153.962C50.1503 157.682 52.9933 158.557 58.4608 158.12L146.377 152.867C153.813 152.43 156 148.928 156 143.019V49.3513C156 46.2874 154.907 45.412 151.189 42.7858C150.97 42.5669 150.751 42.5669 150.533 42.3481L126.476 25.4966C120.79 21.1196 118.384 20.6819 108.98 21.3385ZM60.4291 47.8193C53.212 48.257 51.6811 48.4759 47.5259 44.9743L37.2471 36.8768C36.1536 35.7826 36.591 34.4695 39.4341 34.2506L112.26 28.9982C118.384 28.5605 121.446 30.5302 123.851 32.4998L136.317 41.4727C136.973 41.6915 138.285 43.2235 136.536 43.2235L61.3038 47.8193H60.4291ZM52.1185 142.144V62.7011C52.1185 59.1995 53.212 57.6676 56.2738 57.4487L142.659 52.4152C145.503 52.1963 146.815 53.9471 146.815 57.4487V136.235C146.815 139.736 146.159 142.581 141.566 142.8L58.8982 147.615C54.3055 148.053 52.1185 146.302 52.1185 142.144ZM133.693 67.0781C134.13 69.4855 133.693 71.8928 131.287 72.1117L127.351 72.9871V131.639C123.851 133.608 120.79 134.484 118.165 134.484C114.01 134.484 112.917 133.171 109.636 129.231L83.3923 88.0877V127.7L91.7028 129.669C91.7028 129.669 91.7028 134.484 85.1419 134.484L66.7713 135.578C66.3339 134.484 66.7713 131.858 68.5209 131.42L73.3322 130.107V77.5829L66.7713 76.9264C66.3339 74.519 67.6461 71.0174 71.3639 70.7986L91.0467 69.4855L118.165 111.067V74.3002L111.167 73.4248C110.73 70.5797 112.698 68.3912 115.322 68.1724L133.693 67.0781Z" fill="black"/>
</svg>
