<svg width="1329" height="252" viewBox="0 0 1329 252" fill="none" xmlns="http://www.w3.org/2000/svg">
<g opacity="0.5">
<path d="M114.976 252C90.0185 252 68.4692 246.569 50.3285 235.707C32.3034 224.844 18.3801 209.649 8.55876 190.12C-1.14708 170.591 -6 147.884 -6 122C-6 96.1156 -1.14708 73.4089 8.55876 53.88C18.3801 34.3511 32.3034 19.1556 50.3285 8.29333C68.4692 -2.56889 90.0185 -8 114.976 -8C139.934 -8 161.426 -2.56889 179.451 8.29333C197.591 19.1556 211.515 34.3511 221.221 53.88C231.042 73.4089 235.953 96.1156 235.953 122C235.953 147.884 231.042 170.591 221.221 190.12C211.515 209.649 197.591 224.844 179.451 235.707C161.426 246.569 139.934 252 114.976 252ZM114.976 207.627C130.806 207.858 143.978 204.449 154.493 197.4C165.008 190.351 172.865 180.356 178.064 167.413C183.379 154.471 186.037 139.333 186.037 122C186.037 104.667 183.379 89.6444 178.064 76.9333C172.865 64.2222 165.008 54.3422 154.493 47.2933C143.978 40.2444 130.806 36.6044 114.976 36.3733C99.1466 36.1422 85.9744 39.5511 75.4597 46.6C64.9451 53.6489 57.0302 63.6444 51.7151 76.5867C46.5155 89.5289 43.9157 104.667 43.9157 122C43.9157 139.333 46.5155 154.356 51.7151 167.067C57.0302 179.778 64.9451 189.658 75.4597 196.707C85.9744 203.756 99.1466 207.396 114.976 207.627Z" fill="url(#paint0_linear_227_1320)"/>
<path d="M253.219 246.8V-2.8H358.597C361.024 -2.8 364.259 -2.68445 368.303 -2.45334C372.463 -2.33778 376.16 -1.99111 379.395 -1.41334C394.301 0.897774 406.491 5.80888 415.966 13.32C425.556 20.8311 432.604 30.3067 437.11 41.7467C441.617 53.0711 443.87 65.7244 443.87 79.7067C443.87 100.622 438.67 118.533 428.271 133.44C417.872 148.231 401.58 157.36 379.395 160.827L358.597 162.213H300.362V246.8H253.219ZM393.954 246.8L344.732 145.227L393.261 135.867L447.336 246.8H393.954ZM300.362 118.187H356.517C358.944 118.187 361.601 118.071 364.49 117.84C367.379 117.609 370.036 117.147 372.463 116.453C378.818 114.72 383.728 111.831 387.195 107.787C390.661 103.627 393.03 99.0622 394.301 94.0933C395.687 89.0089 396.381 84.2133 396.381 79.7067C396.381 75.2 395.687 70.4622 394.301 65.4933C393.03 60.4089 390.661 55.8444 387.195 51.8C383.728 47.64 378.818 44.6933 372.463 42.96C370.036 42.2667 367.379 41.8044 364.49 41.5733C361.601 41.3422 358.944 41.2267 356.517 41.2267H300.362V118.187Z" fill="url(#paint1_linear_227_1320)"/>
<path d="M468.107 246.8V-2.8H548.874C550.838 -2.8 554.882 -2.74222 561.006 -2.62666C567.13 -2.51112 573.023 -2.10667 578.685 -1.41334C598.789 1.01333 615.833 8.00444 629.814 19.56C643.795 31.1155 654.425 45.7911 661.704 63.5867C668.984 81.3822 672.623 100.853 672.623 122C672.623 143.147 668.984 162.618 661.704 180.413C654.425 198.209 643.795 212.884 629.814 224.44C615.833 235.996 598.789 242.987 578.685 245.413C573.023 246.107 567.13 246.511 561.006 246.627C554.882 246.742 550.838 246.8 548.874 246.8H468.107ZM515.943 202.427H548.874C551.994 202.427 556.211 202.369 561.526 202.253C566.841 202.022 571.636 201.502 575.911 200.693C586.773 198.498 595.612 193.413 602.429 185.44C609.362 177.467 614.446 167.876 617.681 156.667C621.032 145.458 622.707 133.902 622.707 122C622.707 109.52 620.974 97.6756 617.508 86.4667C614.157 75.2578 609.015 65.7822 602.083 58.04C595.15 50.2978 586.426 45.3867 575.911 43.3067C571.636 42.3822 566.841 41.8622 561.526 41.7467C556.211 41.6311 551.994 41.5733 548.874 41.5733H515.943V202.427Z" fill="url(#paint2_linear_227_1320)"/>
<path d="M696.874 246.8V-2.8H744.71L853.208 163.6V-2.8H901.044V246.8H853.208L744.71 80.4V246.8H696.874Z" fill="url(#paint3_linear_227_1320)"/>
<path d="M932.073 246.8V-2.8H1037.45C1039.88 -2.8 1043.11 -2.68445 1047.16 -2.45334C1051.32 -2.33778 1055.01 -1.99111 1058.25 -1.41334C1073.15 0.897774 1085.34 5.80888 1094.82 13.32C1104.41 20.8311 1111.46 30.3067 1115.96 41.7467C1120.47 53.0711 1122.72 65.7244 1122.72 79.7067C1122.72 100.622 1117.52 118.533 1107.12 133.44C1096.73 148.231 1080.43 157.36 1058.25 160.827L1037.45 162.213H979.216V246.8H932.073ZM1072.81 246.8L1023.59 145.227L1072.11 135.867L1126.19 246.8H1072.81ZM979.216 118.187H1035.37C1037.8 118.187 1040.45 118.071 1043.34 117.84C1046.23 117.609 1048.89 117.147 1051.32 116.453C1057.67 114.72 1062.58 111.831 1066.05 107.787C1069.51 103.627 1071.88 99.0622 1073.15 94.0933C1074.54 89.0089 1075.23 84.2133 1075.23 79.7067C1075.23 75.2 1074.54 70.4622 1073.15 65.4933C1071.88 60.4089 1069.51 55.8444 1066.05 51.8C1062.58 47.64 1057.67 44.6933 1051.32 42.96C1048.89 42.2667 1046.23 41.8044 1043.34 41.5733C1040.45 41.3422 1037.8 41.2267 1035.37 41.2267H979.216V118.187Z" fill="url(#paint4_linear_227_1320)"/>
<path d="M1202.89 246.8V145.227L1117.62 -2.8H1172.73L1226.81 91.1467L1280.88 -2.8H1336L1250.73 145.227V246.8H1202.89Z" fill="url(#paint5_linear_227_1320)"/>
</g>
<defs>
<linearGradient id="paint0_linear_227_1320" x1="665.442" y1="-332.5" x2="665.442" y2="243.5" gradientUnits="userSpaceOnUse">
<stop stop-color="white" stop-opacity="0.243895"/>
<stop offset="1" stop-color="white" stop-opacity="0"/>
</linearGradient>
<linearGradient id="paint1_linear_227_1320" x1="665.442" y1="-332.5" x2="665.442" y2="243.5" gradientUnits="userSpaceOnUse">
<stop stop-color="white" stop-opacity="0.243895"/>
<stop offset="1" stop-color="white" stop-opacity="0"/>
</linearGradient>
<linearGradient id="paint2_linear_227_1320" x1="665.442" y1="-332.5" x2="665.442" y2="243.5" gradientUnits="userSpaceOnUse">
<stop stop-color="white" stop-opacity="0.243895"/>
<stop offset="1" stop-color="white" stop-opacity="0"/>
</linearGradient>
<linearGradient id="paint3_linear_227_1320" x1="665.442" y1="-332.5" x2="665.442" y2="243.5" gradientUnits="userSpaceOnUse">
<stop stop-color="white" stop-opacity="0.243895"/>
<stop offset="1" stop-color="white" stop-opacity="0"/>
</linearGradient>
<linearGradient id="paint4_linear_227_1320" x1="665.442" y1="-332.5" x2="665.442" y2="243.5" gradientUnits="userSpaceOnUse">
<stop stop-color="white" stop-opacity="0.243895"/>
<stop offset="1" stop-color="white" stop-opacity="0"/>
</linearGradient>
<linearGradient id="paint5_linear_227_1320" x1="665.442" y1="-332.5" x2="665.442" y2="243.5" gradientUnits="userSpaceOnUse">
<stop stop-color="white" stop-opacity="0.243895"/>
<stop offset="1" stop-color="white" stop-opacity="0"/>
</linearGradient>
</defs>
</svg>
