<svg width="180" height="180" viewBox="0 0 180 180" fill="none" xmlns="http://www.w3.org/2000/svg">
<rect width="180" height="180" fill="#0038F9"/>
<path d="M52.0008 129.681L60.4434 115.223C60.6586 115.333 60.8201 115.404 60.9719 115.495C66.1383 118.551 71.7713 120.748 77.6481 122.001C79.7226 122.444 81.803 122.853 83.9145 123.027C85.6062 123.167 87.3039 123.209 89.0001 123.154C90.6556 123.098 92.2967 122.809 93.8209 122.103C94.3508 121.856 94.8588 121.564 95.3382 121.231C97.2881 119.875 98.1917 116.812 96.1942 114.422C95.2642 113.307 94.1024 112.542 92.7678 112.011C91.2256 111.396 89.6154 111.02 87.9961 110.677C85.157 110.073 82.3005 109.544 79.4825 108.855C75.8575 107.968 72.4016 106.624 69.2107 104.663C67.2012 103.429 65.3917 101.96 63.8684 100.156C62.3073 98.3258 61.1387 96.1976 60.4344 93.9011C59.4817 90.7876 59.1216 87.5998 59.41 84.3654C59.727 80.8239 61.0451 77.6541 63.1701 74.7764C66.9536 69.6518 72.117 66.705 78.1916 65.146C80.0502 64.6699 81.9382 64.3613 83.848 64.148C85.6998 63.9408 87.5568 63.8897 89.4153 63.8882C102.014 63.8814 114.613 63.8814 127.211 63.8882C127.446 63.8882 127.681 63.9085 128 63.922C127.891 64.1638 127.832 64.3275 127.747 64.4754C124.615 69.8944 121.483 75.3141 118.35 80.7353C118.143 81.0972 117.915 81.2331 117.493 81.2324C111.154 81.2144 104.674 81.2204 98.2808 81.2046C95.0423 81.1963 91.8046 81.1851 88.5661 81.1678C85.6205 81.152 82.4975 80.9177 79.7988 82.3393C77.4511 83.5761 76.0251 86.0168 77.43 88.5272C79.1813 91.658 82.9505 92.2175 86.118 93.0578C90.8685 94.3187 95.8598 94.9885 100.442 96.751C103.024 97.7445 105.44 99.0227 107.545 100.835C110.268 103.18 112.134 106.105 113.419 109.423C114.426 112.02 114.983 114.71 114.97 117.489C114.953 121.166 113.982 124.596 112.045 127.74C109.824 131.348 106.747 134.044 103.018 136.027C99.9823 137.642 96.7453 138.666 93.3657 139.288C90.365 139.846 87.3115 140.078 84.2602 139.977C82.4477 139.917 80.6337 139.744 78.831 139.53C72.7949 138.817 67.0231 137.127 61.4406 134.769C58.4098 133.484 55.4868 131.962 52.699 130.215C52.5111 130.094 52.3254 129.974 52.1412 129.853C52.1117 129.831 52.0929 129.793 52 129.681H52.0008Z" fill="white"/>
<path d="M82.1495 50.0727C82.0597 44.4856 86.857 40.0226 92.1692 40.0001C97.5659 39.9768 102.331 44.2062 102.381 49.9376C102.434 55.9903 97.6074 60.264 92.2439 60.2723C86.8366 60.2813 82.0914 55.777 82.1495 50.072V50.0727Z" fill="white"/>
</svg>
