<svg width="180" height="180" viewBox="0 0 180 180" fill="none" xmlns="http://www.w3.org/2000/svg">
<rect width="180" height="180" fill="#2684FF"/>
<path fill-rule="evenodd" clip-rule="evenodd" d="M133.688 33H46.5C39 33 33 39 33 46.5V133.5C33 141 39 147 46.5 147H133.5C141 147 147 141 147 133.5V46.6875C147.187 39 141.188 33 133.688 33ZM82.125 115.313C82.125 117.75 80.0625 119.812 77.625 119.812H58.6875C56.25 119.812 54.1875 117.75 54.1875 115.313V58.6875C54.1875 56.25 56.25 54.1875 58.6875 54.1875H77.8125C80.25 54.1875 82.3125 56.25 82.3125 58.6875V115.313H82.125ZM126.188 89.25C126.188 91.6875 124.312 93.75 121.687 93.9375C121.687 93.9375 121.688 93.9375 121.5 93.9375H102.562C100.125 93.9375 98.0625 91.875 98.0625 89.4375V58.6875C98.0625 56.25 100.125 54.1875 102.562 54.1875H121.687C124.125 54.1875 126.188 56.25 126.188 58.6875V89.25Z" fill="white"/>
</svg>
