<svg width="180" height="180" viewBox="0 0 180 180" fill="none" xmlns="http://www.w3.org/2000/svg">
<rect width="180" height="180" fill="black"/>
<path d="M41 115.854V91.0105C41 88.6444 41.1496 88.1517 42.546 86.8208L88.7267 44.5281C90.0731 43.1972 90.5721 43 92.9659 43H116.405C130.668 43 137.8 50.0488 137.8 64.1463V88.9895C137.8 91.3556 137.651 91.8483 136.254 93.1792L90.0731 135.472C88.7267 136.803 88.2281 137 85.8343 137H62.3947C48.1316 137 41 129.951 41 115.854ZM70.5736 113.488H108.276C109.623 113.488 110.67 112.502 110.67 111.122V68.829C110.67 67.4982 109.673 66.463 108.276 66.463H70.5736C69.3767 66.463 68.1798 67.4489 68.1798 68.829V111.122C68.1798 112.453 69.3767 113.488 70.5736 113.488Z" fill="#653DF5"/>
</svg>
