<svg width="48" height="48" viewBox="0 0 48 48" fill="none" xmlns="http://www.w3.org/2000/svg">
<path d="M0 9.23077C0 4.13276 4.13276 0 9.23077 0H38.7692C43.8672 0 48 4.13276 48 9.23077V38.7692C48 43.8672 43.8672 48 38.7692 48H9.23077C4.13276 48 0 43.8672 0 38.7692V9.23077Z" fill="#CC3336"/>
<path d="M10.2806 30.0148C10.0381 29.6643 10.1544 29.196 10.5372 28.981L19.7428 23.8121L10.5372 18.6432C10.1544 18.4282 10.0381 17.9599 10.2806 17.6094L12.6643 14.1638C12.9088 13.8103 13.4197 13.7189 13.7867 13.963L21.9267 19.3776L21.5661 9.99573C21.55 9.57777 21.9084 9.23077 22.3561 9.23077H26.567C27.0147 9.23077 27.3731 9.57777 27.357 9.99573L26.9964 19.3776L35.1364 13.963C35.5034 13.7189 36.0143 13.8103 36.2588 14.1638L38.6426 17.6094C38.885 17.9599 38.7687 18.4282 38.3859 18.6432L29.1803 23.8121L38.3859 28.981C38.7687 29.196 38.885 29.6643 38.6426 30.0148L36.2588 33.4604C36.0143 33.8139 35.5034 33.9053 35.1364 33.6612L26.9964 28.2466L27.3581 38.0052C27.3736 38.4228 27.0154 38.7692 26.5681 38.7692H22.3551C21.9077 38.7692 21.5495 38.4228 21.565 38.0052L21.9267 28.2466L13.7867 33.6612C13.4197 33.9053 12.9088 33.8139 12.6643 33.4604L10.2806 30.0148Z" fill="#FFFDFD"/>
</svg>
