<svg width="180" height="180" viewBox="0 0 180 180" fill="none" xmlns="http://www.w3.org/2000/svg">
<rect width="180" height="180" fill="#E6E6E6"/>
<path d="M90 90.0001C90 77.9738 99.7494 68.2241 111.776 68.2241C123.802 68.2241 133.552 77.9738 133.552 90.0001C133.552 102.027 123.802 111.776 111.776 111.776C99.7494 111.776 90 102.027 90 90.0001Z" fill="#1ABCFE"/>
<path d="M46.448 133.552C46.448 121.526 56.1974 111.776 68.224 111.776H90V133.552C90 145.579 80.2507 155.328 68.224 155.328C56.1974 155.328 46.448 145.579 46.448 133.552Z" fill="#0ACF83"/>
<path d="M90 24.6719V68.2238H111.776C123.803 68.2238 133.552 58.4744 133.552 46.4479C133.552 34.4213 123.803 24.6719 111.776 24.6719H90Z" fill="#FF7262"/>
<path d="M46.448 46.4479C46.448 58.4744 56.1974 68.2238 68.224 68.2238H90V24.6719H68.224C56.1974 24.6719 46.448 34.4213 46.448 46.4479Z" fill="#F24E1E"/>
<path d="M46.448 90.0001C46.448 102.027 56.1974 111.776 68.224 111.776H90V68.2241H68.224C56.1974 68.2241 46.448 77.9738 46.448 90.0001Z" fill="#A259FF"/>
</svg>
