<svg xmlns="http://www.w3.org/2000/svg" width="180" height="180" fill="none"><g clip-path="url(#a)"><path fill="#fff" d="M0 0h180v180H0z"/><path fill="#3178C6" d="M0 0h180v180H0zm100.059 95.76V80.997h-64.06V95.76h22.87v65.732h18.207V95.76zm7.259 63.996q4.404 2.246 10.418 3.368 6.013 1.123 12.675 1.123 6.494 0 12.337-1.235 5.844-1.235 10.249-4.07a20.8 20.8 0 0 0 6.972-7.41q2.57-4.575 2.57-11.311 0-4.883-1.468-8.561a20 20 0 0 0-4.235-6.54q-2.767-2.864-6.634-5.136-3.869-2.273-8.724-4.295a110 110 0 0 1-6.38-2.835q-2.823-1.374-4.799-2.806t-3.049-3.032-1.073-3.621q0-1.852.96-3.339.959-1.488 2.71-2.555 1.75-1.066 4.291-1.656 2.54-.588 5.647-.589 2.258 0 4.77.336 2.514.338 5.053 1.039a35 35 0 0 1 4.941 1.769 27.3 27.3 0 0 1 4.433 2.469V84.085q-4.122-1.572-9.006-2.33t-11.208-.758q-6.437 0-12.196 1.376-5.759 1.374-10.135 4.294t-6.917 7.438q-2.54 4.52-2.54 10.806 0 8.028 4.658 13.697 4.658 5.67 14.144 9.6a193 193 0 0 1 6.944 2.975q3.219 1.46 5.562 3.031t3.698 3.424q1.356 1.853 1.356 4.211 0 1.74-.848 3.228-.846 1.488-2.568 2.582-1.723 1.095-4.292 1.712-2.57.618-6.013.617-5.872 0-11.631-2.048t-10.672-6.147z"/></g><defs><clipPath id="a"><path fill="#fff" d="M0 0h180v180H0z"/></clipPath></defs></svg>