<svg width="180" height="180" viewBox="0 0 180 180" fill="none" xmlns="http://www.w3.org/2000/svg">
<rect width="180" height="180" fill="#DAE0E6"/>
<path d="M118.333 115.695C118.164 115.432 118.145 114.683 117.796 114.137C112.561 105.982 107.516 97.6676 101.857 89.8002L101.854 107.456C101.854 112.363 98.2903 116.811 96.4447 118.996C83.9445 133.812 57.7577 127.258 54.3395 107.884L54.3113 69.7999L55.2576 68.3921L67.0139 62.022V105.573C67.0139 105.761 67.9932 108.666 68.191 109.104C71.8869 117.376 84.1846 116.279 87.9182 108.581C90.3288 103.605 89.1329 72.9937 89.1471 65.7525C90.6913 70.2018 99.0884 83.5666 101.857 87.9122L101.859 66.6942C107.862 77.6407 116.662 90.0138 123.517 101.064C125.188 103.762 127.505 107.366 129.171 110.045C132.844 115.954 136.309 122.037 140 127.936H126.582C125.334 126.265 124.19 124.499 123.051 122.757C121.511 120.403 119.854 118.04 118.342 115.695H118.333Z" fill="#053B77"/>
<path d="M97.0063 45.743C95.1796 44.9991 91.8026 44.8985 89.8582 45.0822C49.8858 48.8487 32.0841 96.0152 59.9518 124.881L58.7983 125.083C52.2634 118.624 46.4394 111.66 43.4591 102.767C27.6679 55.6614 84.3025 17.7795 121.634 50.4824C126.215 54.4938 130.993 60.492 132.924 66.2595C125.038 56.184 114.896 47.9777 101.855 46.0144C101.855 46.0144 101.888 44.1264 101.855 43.1895C101.855 43.1895 98.6448 44.8862 97.0063 45.743Z" fill="#ADBFCC"/>
<path d="M123.041 122.757C106.049 144.547 73.916 148.407 52.668 130.276C51.3026 129.113 44.763 122.729 44.424 121.571C44.2309 120.907 44.471 120.737 45.1161 120.879C64.4949 143.723 101.755 140.008 118.333 115.695C119.844 118.039 121.501 120.403 123.041 122.757Z" fill="#ADBFCC"/>
<path d="M101.854 47.8973C124.256 57.2148 136.7 79.6492 131.667 103.84C131.257 105.808 130.81 108.812 129.162 110.045C127.495 107.366 125.654 104.739 123.983 102.041C124.812 101.57 124.76 100.723 124.943 99.9414C127.227 90.1767 126.196 79.8234 122.18 70.6472C118.22 61.6028 110.988 52.9209 101.854 48.8342C101.854 48.5188 101.859 48.208 101.854 47.8926V47.8973Z" fill="#ADBFCC"/>
<path d="M89.1194 49.6255L101.852 43.1895L101.854 59.202C101.854 59.202 90.4375 66.0759 89.1381 66.7303C89.1616 61.0334 89.1382 55.3224 89.1194 49.6255Z" fill="#053B77"/>
<path d="M89.2373 66.459H102.42V66.9298H89.2373V66.459Z" fill="#ADBFCC"/>
</svg>
