<svg width="1342" height="260" viewBox="0 0 1342 260" fill="none" xmlns="http://www.w3.org/2000/svg">
<g opacity="0.5">
<path d="M120.976 260C96.0185 260 74.4692 254.569 56.3285 243.707C38.3034 232.844 24.3801 217.649 14.5588 198.12C4.85292 178.591 0 155.884 0 130C0 104.116 4.85292 81.4089 14.5588 61.88C24.3801 42.3511 38.3034 27.1556 56.3285 16.2933C74.4692 5.43111 96.0185 0 120.976 0C145.934 0 167.426 5.43111 185.451 16.2933C203.591 27.1556 217.515 42.3511 227.221 61.88C237.042 81.4089 241.953 104.116 241.953 130C241.953 155.884 237.042 178.591 227.221 198.12C217.515 217.649 203.591 232.844 185.451 243.707C167.426 254.569 145.934 260 120.976 260ZM120.976 215.627C136.806 215.858 149.978 212.449 160.493 205.4C171.008 198.351 178.865 188.356 184.064 175.413C189.379 162.471 192.037 147.333 192.037 130C192.037 112.667 189.379 97.6444 184.064 84.9333C178.865 72.2222 171.008 62.3422 160.493 55.2933C149.978 48.2444 136.806 44.6044 120.976 44.3733C105.147 44.1422 91.9744 47.5511 81.4597 54.6C70.9451 61.6489 63.0302 71.6444 57.7151 84.5867C52.5155 97.5289 49.9157 112.667 49.9157 130C49.9157 147.333 52.5155 162.356 57.7151 175.067C63.0302 187.778 70.9451 197.658 81.4597 204.707C91.9744 211.756 105.147 215.396 120.976 215.627Z" fill="url(#paint0_linear_262_153)"/>
<path d="M259.219 254.8V5.2H364.597C367.024 5.2 370.259 5.31555 374.303 5.54666C378.463 5.66222 382.16 6.00889 385.395 6.58666C400.301 8.89777 412.491 13.8089 421.966 21.32C431.556 28.8311 438.604 38.3067 443.11 49.7467C447.617 61.0711 449.87 73.7244 449.87 87.7067C449.87 108.622 444.67 126.533 434.271 141.44C423.872 156.231 407.58 165.36 385.395 168.827L364.597 170.213H306.362V254.8H259.219ZM399.954 254.8L350.732 153.227L399.261 143.867L453.336 254.8H399.954ZM306.362 126.187H362.517C364.944 126.187 367.601 126.071 370.49 125.84C373.379 125.609 376.036 125.147 378.463 124.453C384.818 122.72 389.728 119.831 393.195 115.787C396.661 111.627 399.03 107.062 400.301 102.093C401.687 97.0089 402.381 92.2133 402.381 87.7067C402.381 83.2 401.687 78.4622 400.301 73.4933C399.03 68.4089 396.661 63.8444 393.195 59.8C389.728 55.64 384.818 52.6933 378.463 50.96C376.036 50.2667 373.379 49.8044 370.49 49.5733C367.601 49.3422 364.944 49.2267 362.517 49.2267H306.362V126.187Z" fill="url(#paint1_linear_262_153)"/>
<path d="M474.107 254.8V5.2H554.874C556.838 5.2 560.882 5.25778 567.006 5.37334C573.13 5.48888 579.023 5.89333 584.685 6.58666C604.79 9.01333 621.833 16.0044 635.814 27.56C649.795 39.1155 660.425 53.7911 667.704 71.5867C674.984 89.3822 678.623 108.853 678.623 130C678.623 151.147 674.984 170.618 667.704 188.413C660.425 206.209 649.795 220.884 635.814 232.44C621.833 243.996 604.79 250.987 584.685 253.413C579.023 254.107 573.13 254.511 567.006 254.627C560.882 254.742 556.838 254.8 554.874 254.8H474.107ZM521.943 210.427H554.874C557.994 210.427 562.211 210.369 567.526 210.253C572.841 210.022 577.636 209.502 581.911 208.693C592.773 206.498 601.612 201.413 608.429 193.44C615.362 185.467 620.446 175.876 623.681 164.667C627.032 153.458 628.707 141.902 628.707 130C628.707 117.52 626.974 105.676 623.508 94.4667C620.157 83.2578 615.015 73.7822 608.083 66.04C601.15 58.2978 592.426 53.3867 581.911 51.3067C577.636 50.3822 572.841 49.8622 567.526 49.7467C562.211 49.6311 557.994 49.5733 554.874 49.5733H521.943V210.427Z" fill="url(#paint2_linear_262_153)"/>
<path d="M702.874 254.8V5.2H750.71L859.208 171.6V5.2H907.044V254.8H859.208L750.71 88.4V254.8H702.874Z" fill="url(#paint3_linear_262_153)"/>
<path d="M938.073 254.8V5.2H1043.45C1045.88 5.2 1049.11 5.31555 1053.16 5.54666C1057.32 5.66222 1061.01 6.00889 1064.25 6.58666C1079.15 8.89777 1091.34 13.8089 1100.82 21.32C1110.41 28.8311 1117.46 38.3067 1121.96 49.7467C1126.47 61.0711 1128.72 73.7244 1128.72 87.7067C1128.72 108.622 1123.52 126.533 1113.12 141.44C1102.73 156.231 1086.43 165.36 1064.25 168.827L1043.45 170.213H985.216V254.8H938.073ZM1078.81 254.8L1029.59 153.227L1078.11 143.867L1132.19 254.8H1078.81ZM985.216 126.187H1041.37C1043.8 126.187 1046.45 126.071 1049.34 125.84C1052.23 125.609 1054.89 125.147 1057.32 124.453C1063.67 122.72 1068.58 119.831 1072.05 115.787C1075.51 111.627 1077.88 107.062 1079.15 102.093C1080.54 97.0089 1081.23 92.2133 1081.23 87.7067C1081.23 83.2 1080.54 78.4622 1079.15 73.4933C1077.88 68.4089 1075.51 63.8444 1072.05 59.8C1068.58 55.64 1063.67 52.6933 1057.32 50.96C1054.89 50.2667 1052.23 49.8044 1049.34 49.5733C1046.45 49.3422 1043.8 49.2267 1041.37 49.2267H985.216V126.187Z" fill="url(#paint4_linear_262_153)"/>
<path d="M1208.89 254.8V153.227L1123.62 5.2H1178.73L1232.81 99.1467L1286.88 5.2H1342L1256.73 153.227V254.8H1208.89Z" fill="url(#paint5_linear_262_153)"/>
</g>
<defs>
<linearGradient id="paint0_linear_262_153" x1="671.442" y1="76.6077" x2="671.442" y2="633" gradientUnits="userSpaceOnUse">
<stop stop-color="#E09796" stop-opacity="0"/>
<stop offset="1" stop-color="#E09796" stop-opacity="0.5"/>
</linearGradient>
<linearGradient id="paint1_linear_262_153" x1="671.442" y1="76.6077" x2="671.442" y2="633" gradientUnits="userSpaceOnUse">
<stop stop-color="#E09796" stop-opacity="0"/>
<stop offset="1" stop-color="#E09796" stop-opacity="0.5"/>
</linearGradient>
<linearGradient id="paint2_linear_262_153" x1="671.442" y1="76.6077" x2="671.442" y2="633" gradientUnits="userSpaceOnUse">
<stop stop-color="#E09796" stop-opacity="0"/>
<stop offset="1" stop-color="#E09796" stop-opacity="0.5"/>
</linearGradient>
<linearGradient id="paint3_linear_262_153" x1="671.442" y1="76.6077" x2="671.442" y2="633" gradientUnits="userSpaceOnUse">
<stop stop-color="#E09796" stop-opacity="0"/>
<stop offset="1" stop-color="#E09796" stop-opacity="0.5"/>
</linearGradient>
<linearGradient id="paint4_linear_262_153" x1="671.442" y1="76.6077" x2="671.442" y2="633" gradientUnits="userSpaceOnUse">
<stop stop-color="#E09796" stop-opacity="0"/>
<stop offset="1" stop-color="#E09796" stop-opacity="0.5"/>
</linearGradient>
<linearGradient id="paint5_linear_262_153" x1="671.442" y1="76.6077" x2="671.442" y2="633" gradientUnits="userSpaceOnUse">
<stop stop-color="#E09796" stop-opacity="0"/>
<stop offset="1" stop-color="#E09796" stop-opacity="0.5"/>
</linearGradient>
</defs>
</svg>
